<?xml version="1.0" encoding="UTF-8"?>
<svg width="401px" height="351px" viewBox="0 0 401 351" version="1.1" xmlns="http://www.w3.org/2000/svg" xmlns:xlink="http://www.w3.org/1999/xlink">
    <title>未命名</title>
    <defs>
        <linearGradient x1="0.004%" y1="49.993%" x2="99.12973%" y2="49.993%" id="linearGradient-1">
            <stop stop-color="#34495E" offset="0%"></stop>
            <stop stop-color="#41B883" offset="100%"></stop>
        </linearGradient>
        <linearGradient x1="50.004%" y1="100.012%" x2="50.004%" y2="2.00058747%" id="linearGradient-2">
            <stop stop-color="#41B883" offset="0%"></stop>
            <stop stop-color="#34495E" offset="100%"></stop>
        </linearGradient>
        <linearGradient x1="49.854%" y1="100.255%" x2="49.854%" y2="0%" id="linearGradient-3">
            <stop stop-color="#34495E" offset="0%"></stop>
            <stop stop-color="#41B883" offset="100%"></stop>
        </linearGradient>
        <linearGradient x1="57351%" y1="59860%" x2="57351%" y2="35023%" id="linearGradient-4">
            <stop stop-color="#34495E" offset="0%"></stop>
            <stop stop-color="#41B883" offset="100%"></stop>
        </linearGradient>
    </defs>
    <g id="页面-1" stroke="none" stroke-width="1" fill="none" fill-rule="evenodd">
        <g id="g2plot-vue" transform="translate(0.006344, -0.000000)" fill-rule="nonzero">
            <g id="Shape" transform="translate(-0.000000, -0.000000)">
                <path d="M24.4435847,0.0474336335 C24.0853247,0.0474336335 23.7270647,0.0474336335 23.3473092,0.0747353471 C22.7537918,0.0906613468 22.4647953,0.111137632 22.1757989,0.136164203 C21.5822816,0.19076763 21.2311868,0.232857771 20.8824804,0.282910914 C20.3558383,0.364816054 20.0835607,0.411456481 19.8112831,0.463784766 C19.1628325,0.590055191 18.8260681,0.66172219 18.4928863,0.74362733 C18.0880526,0.846008756 17.7871142,0.927913897 17.4897583,1.01323175 C16.9249017,1.18728018 16.6860618,1.26463504 16.4472218,1.34426503 C15.8620638,1.54675274 15.558737,1.66050988 15.2577986,1.78109244 C14.7275739,2.00064373 14.5197831,2.08937429 14.3119923,2.18038001 L13.9537322,2.34077758 C13.7148923,2.45453472 13.4760523,2.56829186 13.2372123,2.682049 L12.8467089,2.88681185 C12.649666,2.99260599 12.4526229,3.09840013 12.2591625,3.20760698 L11.8722418,3.43284612 L11.3885908,3.72975225 L11.0303308,3.96181682 C10.7914908,4.11880168 10.5526508,4.27919924 10.3138108,4.44300952 L9.89464665,4.76039194 L9.51489105,5.04364722 L9.10647468,5.36102964 L8.74821468,5.65793578 C8.5093747,5.85132292 8.2812825,6.04926034 8.06393811,6.25174805 L7.77016492,6.51793975 C7.62924932,6.6476229 7.49072214,6.77958117 7.35458334,6.91381461 L7.10021875,7.16635546 C6.80883396,7.45984888 6.52580857,7.76016772 6.25114258,8.067312 C6.03260398,8.31644013 5.89646519,8.47342499 5.763909,8.63382255 L5.5704486,8.86929983 C5.43789241,9.03311012 5.30533621,9.21057126 5.17994521,9.36073068 C4.83123884,9.82599739 4.58523364,10.1672688 4.34878205,10.5108154 L4.21264326,10.7121655 C4.09322326,10.8919018 3.97380326,11.0739132 3.85438327,11.2581998 L3.72540967,11.4697881 L3.62509687,11.6404238 L50.9369107,39.3247057 L60.95386,50.0099139 C59.9066662,48.4258687 59.8170232,46.432382 60.7181792,44.7688358 C61.6193354,43.1052895 63.3768877,42.019793 65.3389621,41.9149558 L226.541626,41.9149558 C227.111259,41.9559084 227.680892,41.98321 228.261273,41.98321 C240.277565,41.8130311 249.934988,32.5030618 249.970258,21.0553632 C250.005335,9.60766452 240.405287,0.244004694 228.390247,0.0068254284 L24.4435847,0.0474336335 Z" id="路径" fill="url(#linearGradient-1)"></path>
                <path d="M284.275043,141.467878 L204.346921,279.126625 C203.398088,280.73965 201.683268,281.755682 199.805071,281.817677 C197.926873,281.879672 196.148071,280.978954 195.093758,279.43205 L144.305509,191.978794 C143.88902,190.982934 143.398099,190.019497 142.836865,189.096569 L58.3439435,43.2440154 C53.484432,34.5056708 53.4631725,23.9014511 58.287608,15.1439088 C63.1120435,6.38636661 72.1101732,0.695349258 82.1317388,0.0632902182 L24.7663654,0.0106307972 C21.1784266,-0.0967410906 17.6130659,0.610417706 14.3411117,2.07839073 C13.809199,2.32179427 13.3890821,2.52775112 12.9748492,2.74541006 C11.8663054,3.35742955 11.6074098,3.51540781 11.3508679,3.67923711 L10.1081692,4.52178785 C9.46916781,5.00040348 9.27381935,5.15487112 9.08082447,5.31167916 C8.58774609,5.72359286 8.41122639,5.87806049 8.23706029,6.03486854 C7.79223063,6.43859077 7.5662854,6.65624971 7.34740097,6.87741928 C6.9143393,7.31624778 6.71899082,7.52454505 6.52834954,7.73752316 C6.19649251,8.1061391 5.98113847,8.36241495 5.76931482,8.62220142 C5.38097147,9.09613621 5.1832694,9.35592269 4.98909773,9.6192198 C4.74550054,9.94921883 4.54779847,10.240601 4.35362679,10.5354937 C4.01470896,11.0550667 3.82759808,11.3569807 3.64754797,11.6694266 C-1.20495123,19.1212367 -1.10367434,28.1676674 3.28391739,35.4223361 L5.3633195,39.0312617 L178.818642,337.785709 C180.522362,340.927754 182.923826,343.642339 185.840595,345.723239 C186.317198,346.05909 186.706719,346.317706 187.104477,346.56579 C188.204782,347.196533 188.471915,347.340469 188.742579,347.478553 L190.084129,348.113977 C190.824335,348.425252 191.059695,348.516529 191.295054,348.605466 C191.901105,348.819613 192.123521,348.894507 192.347111,348.96706 C192.922566,349.146102 193.22265,349.230357 193.526264,349.311102 C194.128784,349.459717 194.407685,349.524079 194.687763,349.58493 C195.171427,349.686739 195.503284,349.742909 195.835141,349.795568 C196.442369,349.883334 196.767165,349.928972 197.095491,349.960568 C197.512079,349.995674 197.865117,350.020249 198.218157,350.041312 C198.835976,350.041312 199.189015,350.069397 199.542055,350.069397 C200.029249,350.069397 200.325803,350.069397 200.618825,350.048333 C201.247235,350.030781 201.568502,350.006206 201.900359,349.9711 C202.313414,349.935993 202.666453,349.890355 202.99125,349.841207 C203.577295,349.74993 203.877379,349.697271 204.173932,349.63759 C204.636414,349.546313 204.95768,349.469079 205.278945,349.391845 C205.847339,349.24323 206.107411,349.169506 206.366306,349.089932 C206.881744,348.931954 207.178297,348.830145 207.47485,348.724827 C208.042067,348.51887 208.255067,348.434614 208.466892,348.345679 C209.042346,348.103445 209.310655,347.984084 209.575435,347.868233 L210.465094,347.422384 C211.178234,347.036215 211.372405,346.927385 211.559516,346.815044 C212.642171,346.131643 212.922249,345.940899 213.197619,345.744303 C213.458869,345.55707 213.771897,345.321857 214.136704,345.038667 C214.67097,344.617391 215.185231,344.173882 215.679486,343.708139 C216.319665,343.101971 216.815097,342.584738 217.285815,342.044101 C217.818906,341.433253 218.28021,340.848148 218.715625,340.239638 C219.155748,339.624109 219.565273,338.987514 219.944202,338.329857 L224.639626,330.336156 L225.663441,328.580842 L321.683099,163.230261 C325.865566,156.583585 326.090075,148.203099 322.26941,141.344416 C318.448747,134.485733 311.185147,130.229959 303.300338,130.230358 C295.375637,130.249142 288.078425,134.550452 284.275043,141.467878 Z" id="路径" fill="url(#linearGradient-2)"></path>
                <path d="M376.791775,8.21727936e-13 L296.039036,8.21727936e-13 C284.344872,0.229074593 274.975215,10.5916587 274.975215,23.2960084 C274.975215,36.0003581 284.344872,46.3629421 296.039036,46.5920168 C296.603984,46.5920168 297.15847,46.5617131 297.712956,46.5162574 L334.277668,46.5162574 C336.956589,46.9155712 338.953158,49.4012317 338.954185,52.3383655 C338.954552,53.004396 338.849567,53.6655438 338.643813,54.2929574 L319.365822,90.5627591 C313.692783,101.859761 317.525075,116.013157 327.925487,122.175253 C338.3259,128.337349 351.356005,124.174686 357.029045,112.877684 L396.910213,37.8569606 C397.275222,37.1726009 397.611169,36.4680387 397.918053,35.7432741 L397.956414,35.6485748 C398.144731,35.1965438 398.321422,34.7381996 398.48649,34.2735421 L398.514388,34.2015707 C398.587622,33.9894444 398.660857,33.7735302 398.730603,33.557616 L398.835222,33.2242747 C398.928218,32.9237625 399.015402,32.6194624 399.096773,32.3113742 C399.145595,32.1371277 399.19093,31.9590931 399.236267,31.7848466 C399.281602,31.6106 399.316475,31.4477174 399.354835,31.2810467 C399.393197,31.1143761 399.448994,30.8454302 399.494329,30.6257281 C399.525716,30.4704214 399.557102,30.3151146 399.585,30.1598079 C399.638473,29.8643464 399.687295,29.5663594 399.731468,29.2658472 C399.750068,29.1421069 399.767503,29.0158413 399.783778,28.8870504 C399.825626,28.5688611 399.863986,28.2468836 399.895373,27.9249063 C399.895373,27.8794506 399.895373,27.837783 399.895373,27.7923274 C399.930246,27.4135305 399.954658,27.0347337 399.972094,26.6786646 C399.972094,26.5827027 399.972094,26.4854782 399.972094,26.3869909 C399.972094,26.0081941 400,25.6293972 400,25.2506003 C400.009626,11.3170155 389.619516,0.0125469684 376.791775,8.21727936e-13 Z" id="路径" fill="url(#linearGradient-3)"></path>
                <path d="M248.567981,92.6406729 C246.698439,89.4702554 243.242225,87.5173493 239.501854,87.5173493 L160.419874,87.5173493 C156.679615,87.5164016 153.223091,89.4687397 151.352864,92.6386431 C149.482637,95.8085464 149.482974,99.7142011 151.353746,102.883796 L190.898336,169.913356 C192.768072,173.082465 196.223353,175.034699 199.962665,175.034699 C203.701976,175.034699 207.157256,173.082465 209.026991,169.913356 L248.567981,102.88732 C250.437683,99.7180863 250.437683,95.8134299 248.567981,92.6441966 L248.567981,92.6406729 Z" id="路径" fill="url(#linearGradient-4)"></path>
            </g>
        </g>
    </g>
</svg>